<?xml version="1.0" encoding="utf-8"?>
<!-- Generator: Adobe Illustrator 23.0.1, SVG Export Plug-In . SVG Version: 6.00 Build 0)  -->
<svg version="1.1" id="Camada_1" xmlns="http://www.w3.org/2000/svg" xmlns:xlink="http://www.w3.org/1999/xlink"
	 viewBox="0 0 1920 550" xml:space="preserve">
<style type="text/css">
	.st0{fill:#FFFFFF;}
	.st1{fill:#82FFB1;}
</style>
<g transform="translate(0, 151)">
	<path class="st0" d="M489.73,221.94c5.02,0,7.19,2.64,6.51,7.93l-5.7,41.29c-0.27,1.63-1.26,3.29-2.95,4.98
		c-1.7,1.7-3.63,2.68-5.8,2.95c-11.12,2.17-22.24,3.25-33.36,3.25c-19.66,0-35.43-6.17-47.29-18.51
		c-11.87-12.34-16.24-29.09-13.12-50.24l10.78-78.72h-16.68c-2.17,0-3.9-0.74-5.19-2.24c-1.29-1.49-1.8-3.19-1.53-5.09l5.9-43.93
		c1.08-5.29,4.14-7.86,9.15-7.73h16.68l1.63-10.58l13.02-37.83c1.9-5.02,4.81-7.53,8.75-7.53h48.61c1.9,0,3.49,0.71,4.78,2.14
		c1.29,1.42,1.8,3.22,1.53,5.39l-6.71,48.41h27.05c2.44,0,4.3,0.81,5.59,2.44c1.29,1.63,1.66,3.39,1.12,5.29l-5.7,43.93
		c-0.27,1.9-1.32,3.59-3.15,5.09c-1.83,1.49-3.9,2.24-6.2,2.24h-27.05l-9.97,72.21c-0.27,2.17-0.14,4.31,0.41,6.41
		c0.54,2.1,2.27,4.27,5.19,6.51c2.91,2.24,7.02,3.36,12.31,3.36C482.28,223.23,486.07,222.76,489.73,221.94z"/>
	<path class="st0" d="M560.92,75.9h51.05c3.39,0,5.76,1.76,7.12,5.29l3.46,7.53c0.27-0.27,1.15-1.25,2.64-2.95
		c1.49-1.69,3.02-3.15,4.58-4.37c1.56-1.22,3.59-2.61,6.1-4.17c2.51-1.56,5.36-2.75,8.54-3.56c3.19-0.81,6.68-1.22,10.48-1.22
		c5.29,0,10.3,0.92,15.05,2.75c4.75,1.83,6.85,4.65,6.31,8.44l-5.9,42.92c-0.54,4.2-2.51,6.31-5.9,6.31c-2.17,0-5.63-0.2-10.37-0.61
		c-4.75-0.41-8.88-0.61-12.41-0.61c-10.85,0-19.32,2.1-25.43,6.31l-18.71,133.63c-0.27,2.17-1.32,3.97-3.15,5.39
		c-1.83,1.42-3.56,2.14-5.19,2.14h-56.75c-1.9,0-3.56-0.68-4.98-2.03c-1.42-1.35-2-3.19-1.73-5.49l26.85-188.35
		c0.27-2.17,1.25-3.93,2.95-5.29C557.23,76.58,559.02,75.9,560.92,75.9z"/>
	<path class="st0" d="M787.72,273.61l-2.85-8.34c-8.54,11.39-23.53,17.09-44.95,17.09c-18.85,0-33.43-6.31-43.73-18.92
		c-10.31-12.61-13.97-29.49-10.98-50.65l18.31-129.57c0.27-2.17,1.25-3.93,2.95-5.29c1.69-1.35,3.49-2.03,5.39-2.03h56.75
		c1.9,0,3.56,0.68,4.98,2.03c1.42,1.36,2,3.12,1.73,5.29l-17.9,125.91c-0.27,3.12,0.61,6.27,2.64,9.46c2.03,3.19,6.1,4.78,12.2,4.78
		s12.07-2.1,17.9-6.31l19.32-133.84c0.27-2.17,1.22-3.93,2.85-5.29c1.63-1.35,3.39-2.03,5.29-2.03h56.75c1.9,0,3.56,0.68,4.98,2.03
		c1.42,1.36,2,3.12,1.73,5.29l-26.65,188.35c-0.27,2.17-1.32,3.97-3.15,5.39c-1.83,1.42-3.56,2.14-5.19,2.14h-50.85
		C791.58,279.1,789.07,277.27,787.72,273.61z"/>
	<path class="st0" d="M978.51,164.18l-3.66,26.65c-3.12,21.7,5.76,32.54,26.65,32.54c4.75,0,9.25-0.37,13.53-1.12
		c4.27-0.74,9.12-1.73,14.54-2.95c5.42-1.22,10.03-2.1,13.83-2.64c2.44,0,4.14,1.22,5.09,3.66c1.35,28.88,1.9,43.73,1.63,44.54
		c0,2.17-1.63,4-4.88,5.49c-16.68,8-39.73,12-69.16,12c-26.71,0-46.44-8.88-59.19-26.65c-12.75-17.76-17.09-40.81-13.02-69.16
		l2.64-18.31c4.2-28.34,15.12-51.39,32.75-69.16c17.63-17.76,39.73-26.65,66.31-26.65c29.42,0,51.39,4.07,65.9,12.2
		c2.71,1.36,3.8,3.12,3.25,5.29c0,1.63-4.75,16.48-14.24,44.54c-1.36,2.44-3.39,3.73-6.1,3.86c-1.63-0.27-7.19-1.46-16.68-3.56
		c-9.49-2.1-17.29-3.15-23.39-3.15c-12.48,0-21.22,2.98-26.24,8.95C983.05,146.55,979.86,154.41,978.51,164.18z"/>
	<path class="st0" d="M1290.73,83.63l-68.95,79.33l48.21,108.21c-0.81,5.29-3.59,7.93-8.34,7.93h-57.97
		c-3.93,0-7.39-2.64-10.37-7.93l-29.49-66.72l-9.56,67.12c-0.81,5.02-3.59,7.53-8.34,7.53h-56.34c-2.17,0-3.97-0.68-5.39-2.03
		c-1.42-1.35-2-3.19-1.73-5.49l34.58-246.93c0.81-5.29,3.93-7.93,9.36-7.93h56.14c1.9,0,3.49,0.75,4.78,2.24
		c1.29,1.49,1.79,3.39,1.52,5.7l-14.64,104.96l40.07-45.97c4.75-5.29,8.88-7.86,12.41-7.73h57.97c1.9,0,3.46,0.75,4.68,2.24
		C1290.52,79.63,1291,81.46,1290.73,83.63z"/>
	<path class="st1" d="M1364.56,277.88l-12.1,92.81c-0.27,2.17-1.19,4.04-2.74,5.59c-1.56,1.56-3.29,2.34-5.19,2.34h-56.75
		c-1.9,0-3.56-0.74-4.98-2.24c-1.42-1.49-2-3.39-1.73-5.7L1319,94.21c1.09-7.46,13.33-12.95,36.72-16.48
		c23.39-3.52,41.73-5.29,55.02-5.29c28.34,0,48.95,8.48,61.83,25.43c12.88,16.95,16.54,45.7,10.98,86.24
		c-2.44,18.31-7.12,34.21-14.03,47.7c-6.92,13.49-15.05,23.7-24.41,30.61c-9.36,6.92-18.54,11.97-27.56,15.15
		c-9.02,3.19-18.07,4.78-27.16,4.78C1378.46,282.49,1369.85,281,1364.56,277.88z M1384.9,133.67l-12.41,87.46
		c4.47,1.36,8.88,2.1,13.22,2.24c12.75,0,20.24-5.56,22.48-16.68c2.24-11.12,3.76-20.47,4.57-28.07l3.86-30.31
		c0.27-6.37-1.25-10.75-4.57-13.12c-3.33-2.37-7.77-3.56-13.33-3.56L1384.9,133.67z"/>
	<path class="st1" d="M1614.34,72.44c23.59,0,41.84,7.29,54.71,21.87c12.88,14.58,17.43,35.22,13.63,61.94l-16.27,115.33
		c-0.27,2.17-1.32,3.97-3.15,5.39c-1.83,1.42-3.56,2.14-5.19,2.14h-50.85c-3.66,0-6.17-1.83-7.53-5.49l-1.22-4.47
		c-12.75,8.95-26.65,13.36-41.7,13.22c-16.41,0-29.46-5.39-39.15-16.17c-9.7-10.78-12.85-27.29-9.46-49.53
		c3.39-23.59,12.41-39.83,27.05-48.71c14.64-8.88,33.63-13.32,56.95-13.32h16.27v-2.24c1.08-7.46,0.11-12.78-2.95-15.97
		c-3.05-3.19-8.31-4.78-15.77-4.78c-4.74,0-9.66,0.34-14.74,1.02c-5.09,0.68-11.19,1.66-18.31,2.95c-7.12,1.29-12.17,2.2-15.16,2.75
		c-2.71,0-4.54-1.29-5.49-3.86c-1.08-26.44-1.63-41.29-1.63-44.54c0.55-2.17,2.17-3.93,4.88-5.29
		C1556.51,76.51,1581.53,72.44,1614.34,72.44z M1600.91,226.22l4.68-31.73h-6.31c-6.1,0-11.8,1.46-17.09,4.37
		c-5.29,2.92-8.34,7.42-9.15,13.53c-1.08,7.19-0.78,12.27,0.92,15.26c1.69,2.98,4.98,4.47,9.86,4.47c3.93,0,7.76-0.71,11.5-2.14
		C1599.05,228.55,1600.91,227.3,1600.91,226.22z"/>
	<path class="st1" d="M1802.89,265.68l1.22-7.73c-6.1,1.9-14.03,2.85-23.8,2.85c-53.02,0-75.4-29.15-67.12-87.46
		c3.12-20.88,7.66-38.2,13.63-51.97c5.96-13.76,13.59-24.1,22.88-31.02c9.29-6.92,19.02-11.63,29.19-14.14
		c10.17-2.51,22.44-3.76,36.82-3.76c2.44,0,6.68,0.2,12.71,0.61c6.03,0.41,13.42,1.12,22.17,2.14c8.75,1.02,16.91,2.27,24.51,3.76
		c7.59,1.49,14.03,3.56,19.32,6.2s7.66,5.66,7.12,9.05l-22.98,164.15c-3.93,26.98-16.37,48.44-37.32,64.38
		c-20.95,15.93-45.43,23.9-73.43,23.9c-28,0-49.67-6.71-64.99-20.14c-2.17-2.17-3.25-3.93-3.25-5.29c0-0.27,0.27-1.19,0.81-2.75
		c0.54-1.56,2-6.07,4.37-13.53c2.37-7.46,5.32-16.88,8.85-28.27c1.35-2.44,3.59-3.73,6.71-3.86c18.03,9.76,34.44,14.64,49.22,14.64
		c11.66,0,19.86-1.63,24.61-4.88C1798.89,279.3,1801.81,273.68,1802.89,265.68z M1815.3,199.57l9.56-65.9
		c-4.75-1.35-9.29-2.03-13.63-2.03c-12.75,0-20.14,5.56-22.17,16.68c-1.36,5.56-2.58,12.07-3.66,19.53l-1.83,17.09
		c-0.27,6.37,1.29,10.75,4.68,13.12c3.39,2.37,7.86,3.56,13.42,3.56L1815.3,199.57z"/>
	<g>
		<circle class="st1" cx="161.89" cy="253.27" r="16.86"/>
		<g>
			<path class="st1" d="M143.92,88.39c49.83-5.29,98.68,11.93,133.99,47.24c8.88,8.88,16.61,18.62,23.14,29.02V67.08
				c0-26.02-21.09-47.11-47.11-47.11H69.58c-26.02,0-47.11,21.09-47.11,47.11v97.56C48.61,123.04,92.88,93.8,143.92,88.39z"/>
			<path class="st1" d="M280.07,283.79c3.67-13.52,5.08-27.71,3.94-42.03c-4.72-59.26-52.97-107.51-112.23-112.23
				c-3.29-0.26-6.58-0.39-9.85-0.39c-32.51,0-63.72,12.82-86.86,35.96c-25.47,25.47-38.43,60.72-35.56,96.71
				c0.6,7.53,1.93,14.88,3.87,21.99h76.3c-6.24-8.58-9.97-19.1-9.97-30.52c0-28.75,23.31-52.06,52.06-52.06
				c28.75,0,52.06,23.31,52.06,52.06c0,11.42-3.73,21.94-9.97,30.52H280.07z"/>
		</g>
	</g>
</g>
</svg>
